<?xml version="1.0" encoding="UTF-8" standalone="no"?>
<!-- Created with Inkscape (http://www.inkscape.org/) -->

<svg
   xmlns:dc="http://purl.org/dc/elements/1.1/"
   xmlns:cc="http://creativecommons.org/ns#"
   xmlns:rdf="http://www.w3.org/1999/02/22-rdf-syntax-ns#"
   xmlns:svg="http://www.w3.org/2000/svg"
   xmlns="http://www.w3.org/2000/svg"
   xmlns:sodipodi="http://sodipodi.sourceforge.net/DTD/sodipodi-0.dtd"
   xmlns:inkscape="http://www.inkscape.org/namespaces/inkscape"
   width="500"
   height="500.13101"
   viewBox="0 0 499.99998 500.13102"
   id="svg2"
   version="1.1"
   inkscape:version="0.91 r13725"
   sodipodi:docname="1237.svg">
  <defs
     id="defs4" />
  <sodipodi:namedview
     id="base"
     pagecolor="#ffffff"
     bordercolor="#666666"
     borderopacity="1.0"
     inkscape:pageopacity="0.0"
     inkscape:pageshadow="2"
     inkscape:zoom="0.92011719"
     inkscape:cx="355.98068"
     inkscape:cy="302.63638"
     inkscape:document-units="px"
     inkscape:current-layer="layer1"
     showgrid="false"
     units="px"
     inkscape:window-width="1600"
     inkscape:window-height="838"
     inkscape:window-x="-8"
     inkscape:window-y="-8"
     inkscape:window-maximized="1" />
  <metadata
     id="metadata7">
    <rdf:RDF>
      <cc:Work
         rdf:about="">
        <dc:format>image/svg+xml</dc:format>
        <dc:type
           rdf:resource="http://purl.org/dc/dcmitype/StillImage" />
        <dc:title></dc:title>
      </cc:Work>
    </rdf:RDF>
  </metadata>
  <g
     inkscape:label="Layer 1"
     inkscape:groupmode="layer"
     id="layer1"
     transform="translate(0,-552.23117)">
    <path
       style="fill:#ffffff"
       d="M 230.76149,1052.0211 C 181.96926,1047.9586 136.50117,1030.6143 98.479033,1001.5604 81.071443,988.25875 63.087553,970.16303 49.962363,952.74204 21.830503,915.40275 4.8410929,870.81877 0.75195292,823.60292 -0.88637708,804.68577 0.21986292,778.0615 3.4139129,759.53655 10.865893,716.31628 29.755483,675.8396 58.719773,641.02693 c 9.61251,-11.55344 28.47401,-29.38379 41.06899,-38.82376 31.770247,-23.81191 69.107137,-39.95831 107.659577,-46.55759 18.58136,-3.1807 44.95855,-4.29215 63.65276,-2.68212 31.63672,2.72469 60.84902,10.7748 88.53757,24.39851 25.8804,12.73405 45.21437,26.36263 65.41298,46.10985 37.01081,36.18372 61.3649,81.4781 71.02919,132.102 3.18402,16.67867 3.91111,25.3636 3.91897,46.81152 0.006,16.91516 -0.14242,20.60126 -1.16695,28.94162 -2.48053,20.19332 -6.42716,37.07985 -12.94893,55.40482 -3.85738,10.83853 -5.93873,15.67554 -11.83501,27.50428 -12.52294,25.12269 -26.44997,44.36285 -47.05979,65.013 -20.17492,20.21438 -39.84768,34.44544 -65.00086,47.02094 -26.89173,13.4446 -53.2265,21.2527 -84.33853,25.0056 -8.10997,0.9783 -38.32297,1.4587 -46.88825,0.7455 z"
       id="path4147-3"
       inkscape:connector-curvature="0"
       sodipodi:nodetypes="sssssssssssscsssssss" />
    <path
       style="fill:#0488cf"
       d="M 230.7615,1052.0211 C 181.96927,1047.9586 136.50118,1030.6143 98.479034,1001.5604 81.071443,988.25877 63.087555,970.16305 49.96237,952.74206 21.830505,915.40277 4.8410986,870.81879 0.75195168,823.60294 -0.8863758,804.68579 0.21986183,778.06152 3.4139149,759.53657 10.865897,716.3163 29.755487,675.83962 58.719777,641.02695 68.332285,629.47351 87.193789,611.64316 99.788762,602.20319 131.55902,578.39128 168.89591,562.24488 207.44835,555.6456 c 18.58136,-3.1807 44.95854,-4.29215 63.65275,-2.68212 31.63672,2.72469 60.84902,10.7748 88.53757,24.39851 25.88041,12.73405 45.21438,26.36263 65.41299,46.10985 37.01081,36.18372 61.3649,81.4781 71.02919,132.102 3.18402,16.67867 3.91111,25.3636 3.91897,46.81152 0.006,16.91516 -0.14242,20.60126 -1.16695,28.94162 -2.48053,20.19332 -6.42716,37.07985 -12.94893,55.40482 -3.85738,10.83853 -5.93873,15.67554 -11.83501,27.50428 -12.52294,25.12269 -26.44997,44.36285 -47.05979,65.013 -20.17492,20.21438 -39.84768,34.44542 -65.00087,47.02092 -26.89173,13.4446 -53.2265,21.2527 -84.33853,25.0056 -8.10997,0.9783 -38.32296,1.4587 -46.88824,0.7455 z M 145.10533,920.36038 c 19.72474,-5.21075 32.44154,-16.66032 38.4785,-34.64412 2.86974,-8.54882 2.90318,-9.3594 2.89717,-70.23363 l -0.005,-56.05633 -1.17013,-2.09556 c -2.56652,-4.59627 -11.74438,-7.21332 -18.45513,-5.26245 -6.91754,2.01098 -9.69542,5.4641 -9.69542,12.05216 0,2.58376 -0.20448,3.95005 -0.59116,3.95005 -0.32514,0 -2.20102,-1.51865 -4.16862,-3.37479 -9.05252,-8.53969 -18.79768,-12.1587 -31.3887,-11.65667 -8.19109,0.3266 -13.18869,1.62464 -20.05096,5.20788 -13.284352,6.93663 -21.667409,19.18944 -25.350367,37.0525 -1.822146,8.83778 -1.919553,21.95591 -0.226164,30.45986 4.285402,21.52068 15.07952,34.88401 33.054111,40.92165 4.80429,1.61375 5.28596,1.67249 13.88311,1.69322 8.71342,0.021 9.01445,-0.0156 13.91078,-1.68996 6.34637,-2.17027 11.80054,-5.52264 16.50294,-10.14344 2.0324,-1.99713 3.85947,-3.46695 4.06015,-3.26627 0.20069,0.20068 0.36488,3.98562 0.36488,8.41096 0,6.68738 -0.1759,8.54655 -1.04167,11.00982 -3.28039,9.3333 -11.88625,17.34524 -21.25109,19.78447 -5.74827,1.49723 -14.06972,0.80355 -22.76186,-1.89745 -1.87291,-0.58198 -7.29518,-2.97295 -12.04949,-5.31326 -9.879947,-4.86341 -12.73213,-5.46349 -17.864873,-3.75867 -5.030348,1.67082 -9.90135,8.19809 -9.90135,13.26809 0,10.84333 19.239214,22.59405 43.471183,26.55086 3.0782,0.50263 7.55621,0.66955 14.41877,0.53746 8.56231,-0.16482 10.64973,-0.37542 14.93089,-1.50638 z M 125.70972,840.3805 c -10.82706,-1.39767 -18.92498,-8.46691 -22.21955,-19.39701 -0.47768,-1.58477 -0.99426,-5.23891 -1.14795,-8.12031 -1.01236,-18.97954 9.77363,-32.17171 26.33633,-32.21155 11.20538,-0.0269 22.42307,9.28782 25.60096,21.25814 1.09088,4.10908 1.08724,14.08559 -0.007,18.23958 -2.70791,10.28319 -11.40644,18.65743 -21.01425,20.23085 -3.34697,0.54811 -3.30525,0.54811 -7.54889,3e-4 z m 131.77022,26.53756 c 5.85643,-1.93341 12.10715,-5.62884 16.73693,-9.8949 2.16706,-1.99681 4.1796,-3.48255 4.47232,-3.30163 0.29272,0.18091 0.5361,1.90633 0.54084,3.83427 0.0122,4.94032 1.34922,7.19664 5.49224,9.26814 2.92473,1.46237 3.54669,1.57168 8.94319,1.57168 5.42533,0 6.00033,-0.10254 8.90493,-1.588 2.39559,-1.22516 3.40463,-2.12296 4.41603,-3.92919 l 1.31094,-2.34118 0,-76.75002 0,-76.75002 -1.139,-2.12774 c -2.35037,-4.39067 -7.07597,-6.25341 -14.97165,-5.90155 -6.29439,0.2805 -9.96569,2.04094 -11.78655,5.65181 l -1.17875,2.33755 0,30.50569 c 0,16.77813 -0.1967,30.62726 -0.43711,30.77584 -0.24041,0.14858 -1.4781,-0.79699 -2.75043,-2.10127 -5.81267,-5.95864 -13.58898,-10.35057 -21.80135,-12.31303 -3.89098,-0.9298 -5.67438,-1.05987 -11.42153,-0.83296 -8.07007,0.3186 -12.49966,1.42826 -19.38397,4.85589 -6.09782,3.03606 -10.48361,6.58623 -14.72295,11.91782 -8.33203,10.47874 -12.79598,24.91088 -12.77172,41.29154 0.0391,26.39772 11.25554,46.38099 30.37607,54.11812 6.95526,2.81445 10.66433,3.43622 19.38397,3.24947 6.52928,-0.13984 8.18518,-0.35707 11.78755,-1.54633 z m -9.97271,-26.573 c -11.35224,-1.48423 -19.87534,-9.34022 -22.56874,-20.80226 -1.27388,-5.42113 -0.7769,-16.51704 0.94726,-21.14927 3.41828,-9.18374 9.26815,-14.67447 18.07947,-16.96952 13.49966,-3.51622 28.07292,5.74251 32.1686,20.43746 1.11579,4.00334 0.95617,15.47451 -0.26608,19.12202 -2.58328,7.70923 -7.35356,13.59124 -13.69398,16.88547 -3.14127,1.63208 -8.95114,3.194 -10.98052,2.95199 -0.28814,-0.0344 -1.94684,-0.24852 -3.68601,-0.47589 z m 97.26217,27.78021 c 2.90458,-0.80681 5.30536,-2.67465 6.74896,-5.25078 l 1.30973,-2.33724 0.31529,-28.814 c 0.34675,-31.68908 0.38993,-32.13973 3.7292,-38.92276 4.38117,-8.89941 12.5689,-13.63397 22.65767,-13.10181 9.93678,0.52414 17.64586,7.68181 19.92041,18.49555 0.62272,2.96055 0.77312,9.02479 0.78046,31.46934 0.0103,31.45027 0.0348,31.68521 3.68457,35.33499 5.46459,5.46459 19.4613,4.68898 23.50239,-1.30235 2.02123,-2.99669 2.27116,-8.5436 2.00714,-44.54634 -0.23469,-32.00509 -0.27669,-33.12418 -1.38599,-36.93431 -4.23459,-14.54456 -17.07028,-25.51319 -33.47305,-28.60412 -5.47474,-1.03165 -15.44001,-0.75968 -20.25856,0.55292 -7.06743,1.92519 -15.29357,7.26952 -18.61086,12.09102 -0.89326,1.29831 -1.8452,2.22393 -2.11542,2.05693 -0.29659,-0.18331 -0.49131,-12.23661 -0.49131,-30.41329 0,-32.47067 0.0188,-32.23218 -2.77543,-35.22775 -2.30951,-2.47593 -4.99614,-3.41504 -10.45109,-3.65318 -7.85571,-0.34295 -12.64165,1.58324 -14.58924,5.87172 -0.93664,2.06242 -0.97569,5.17948 -0.98673,78.77216 l -0.0115,76.62476 1.10079,2.34183 c 1.85683,3.95024 6.2697,5.9371 13.30621,5.99104 2.30512,0.0177 5.04399,-0.20478 6.08637,-0.49433 z M 187.28267,733.08857 c 0.96307,-7.3019 3.17117,-15.64356 4.88517,-18.45494 1.59127,-2.61008 4.60095,-5.36111 7.42215,-6.78431 3.11619,-1.57201 5.41438,-2.17789 13.09727,-3.45287 15.39511,-2.55484 23.04197,-6.63607 26.99921,-14.4098 3.0371,-5.9662 2.07752,-13.51348 -2.19511,-17.2649 -3.34106,-2.93348 -5.78794,-3.84096 -11.01898,-4.0866 -7.34114,-0.34474 -13.86332,1.89887 -21.16803,7.28174 -10.14813,7.4782 -17.49937,20.80443 -19.12826,34.67546 -0.19578,1.66718 -0.56563,2.96136 -0.82188,2.87594 -0.25626,-0.0854 -1.25259,-1.96492 -2.21407,-4.17667 -4.3069,-9.90735 -12.60596,-17.0313 -22.8315,-19.59864 -4.58805,-1.15192 -10.0562,-0.78978 -13.44462,0.8904 -9.179,4.55152 -4.66212,15.97906 7.4094,18.7455 1.4407,0.33017 5.80209,0.82216 9.69198,1.09331 14.15908,0.98699 17.23554,3.76495 20.42383,18.44213 0.58439,2.69023 1.18578,5.4314 1.33642,6.09151 0.41728,1.82853 1.19213,0.89929 1.55702,-1.86726 z m -2.01817,-37.62481 c 0.75237,-15.63859 -4.17724,-27.97016 -11.18449,-27.97836 -2.24915,-0.003 -3.30547,1.58575 -3.29891,4.9606 0.006,3.05069 1.37894,6.30858 5.03197,11.9399 2.72466,4.20019 4.24785,7.40852 6.60713,13.91669 0.96109,2.65123 1.77032,4.17384 2.06283,3.88133 0.26472,-0.26472 0.61638,-3.2888 0.78147,-6.72016 z"
       id="path4147"
       inkscape:connector-curvature="0" />
  </g>
</svg>
